<svg width="133" height="14" viewBox="0 0 133 14" fill="none" xmlns="http://www.w3.org/2000/svg">
<path d="M1.595 8.03V7.128H3.674C3.96 7.128 4.213 7.06933 4.433 6.952C4.66033 6.83467 4.83633 6.66967 4.961 6.457C5.093 6.24433 5.159 5.99133 5.159 5.698C5.159 5.40467 5.093 5.15167 4.961 4.939C4.83633 4.72633 4.66033 4.56133 4.433 4.444C4.213 4.32667 3.96 4.268 3.674 4.268H1.595V3.366H3.74C4.20933 3.366 4.62733 3.46133 4.994 3.652C5.368 3.84267 5.66133 4.114 5.874 4.466C6.094 4.81067 6.204 5.22133 6.204 5.698C6.204 6.16733 6.094 6.578 5.874 6.93C5.66133 7.27467 5.368 7.546 4.994 7.744C4.62733 7.93467 4.20933 8.03 3.74 8.03H1.595ZM0.902 11V3.366H1.936V11H0.902ZM9.48312 11.11C8.96978 11.11 8.50778 10.989 8.09712 10.747C7.68645 10.505 7.36012 10.1787 7.11812 9.768C6.87612 9.35 6.75512 8.88433 6.75512 8.371C6.75512 7.865 6.87612 7.41033 7.11812 7.007C7.36012 6.59633 7.68645 6.27 8.09712 6.028C8.50778 5.786 8.96978 5.665 9.48312 5.665C9.98912 5.665 10.4475 5.786 10.8581 6.028C11.2761 6.26267 11.6061 6.58533 11.8481 6.996C12.0901 7.40667 12.2111 7.865 12.2111 8.371C12.2111 8.88433 12.0901 9.35 11.8481 9.768C11.6061 10.1787 11.2761 10.505 10.8581 10.747C10.4475 10.989 9.98912 11.11 9.48312 11.11ZM9.48312 10.153C9.81312 10.153 10.1065 10.076 10.3631 9.922C10.6198 9.768 10.8215 9.559 10.9681 9.295C11.1148 9.02367 11.1881 8.71567 11.1881 8.371C11.1881 8.03367 11.1111 7.733 10.9571 7.469C10.8105 7.205 10.6088 6.99967 10.3521 6.853C10.1028 6.699 9.81312 6.622 9.48312 6.622C9.15312 6.622 8.85978 6.699 8.60312 6.853C8.34645 6.99967 8.14478 7.205 7.99812 7.469C7.85145 7.733 7.77812 8.03367 7.77812 8.371C7.77812 8.71567 7.85145 9.02367 7.99812 9.295C8.14478 9.559 8.34645 9.768 8.60312 9.922C8.85978 10.076 9.15312 10.153 9.48312 10.153ZM14.6722 11L12.6042 5.775H13.6382L15.1342 9.845H14.8042L16.2892 5.775H16.8612L18.3462 9.845H18.0162L19.5122 5.775H20.5462L18.4892 11H17.9062L16.3992 7.051H16.7622L15.2442 11H14.6722ZM23.6958 11.11C23.1751 11.11 22.7058 10.9927 22.2878 10.758C21.8698 10.516 21.5398 10.1897 21.2978 9.779C21.0558 9.36833 20.9348 8.90267 20.9348 8.382C20.9348 7.86867 21.0521 7.40667 21.2868 6.996C21.5288 6.58533 21.8515 6.26267 22.2548 6.028C22.6655 5.786 23.1238 5.665 23.6298 5.665C24.1138 5.665 24.5391 5.775 24.9058 5.995C25.2798 6.215 25.5695 6.51933 25.7748 6.908C25.9875 7.29667 26.0938 7.73667 26.0938 8.228C26.0938 8.30133 26.0901 8.382 26.0828 8.47C26.0755 8.55067 26.0608 8.646 26.0388 8.756H21.6278V7.931H25.5108L25.1478 8.25C25.1478 7.898 25.0855 7.601 24.9608 7.359C24.8361 7.10967 24.6601 6.919 24.4328 6.787C24.2055 6.64767 23.9305 6.578 23.6078 6.578C23.2705 6.578 22.9735 6.65133 22.7168 6.798C22.4601 6.94467 22.2621 7.15 22.1228 7.414C21.9835 7.678 21.9138 7.98967 21.9138 8.349C21.9138 8.71567 21.9871 9.03833 22.1338 9.317C22.2805 9.58833 22.4895 9.801 22.7608 9.955C23.0321 10.1017 23.3438 10.175 23.6958 10.175C23.9891 10.175 24.2568 10.1237 24.4988 10.021C24.7481 9.91833 24.9608 9.76433 25.1368 9.559L25.7748 10.208C25.5255 10.5013 25.2175 10.725 24.8508 10.879C24.4915 11.033 24.1065 11.11 23.6958 11.11ZM27.1733 11V5.775H28.1633V11H27.1733ZM28.1633 8.019L27.7893 7.854C27.7893 7.18667 27.9433 6.655 28.2513 6.259C28.5593 5.863 29.0029 5.665 29.5823 5.665C29.8463 5.665 30.0846 5.71267 30.2973 5.808C30.5099 5.896 30.7079 6.04633 30.8913 6.259L30.2423 6.93C30.1323 6.81267 30.0113 6.72833 29.8793 6.677C29.7473 6.62567 29.5933 6.6 29.4173 6.6C29.0506 6.6 28.7499 6.71733 28.5153 6.952C28.2806 7.18667 28.1633 7.54233 28.1633 8.019ZM33.8364 11.11C33.3158 11.11 32.8464 10.9927 32.4284 10.758C32.0104 10.516 31.6804 10.1897 31.4384 9.779C31.1964 9.36833 31.0754 8.90267 31.0754 8.382C31.0754 7.86867 31.1928 7.40667 31.4274 6.996C31.6694 6.58533 31.9921 6.26267 32.3954 6.028C32.8061 5.786 33.2644 5.665 33.7704 5.665C34.2544 5.665 34.6798 5.775 35.0464 5.995C35.4204 6.215 35.7101 6.51933 35.9154 6.908C36.1281 7.29667 36.2344 7.73667 36.2344 8.228C36.2344 8.30133 36.2308 8.382 36.2234 8.47C36.2161 8.55067 36.2014 8.646 36.1794 8.756H31.7684V7.931H35.6514L35.2884 8.25C35.2884 7.898 35.2261 7.601 35.1014 7.359C34.9768 7.10967 34.8008 6.919 34.5734 6.787C34.3461 6.64767 34.0711 6.578 33.7484 6.578C33.4111 6.578 33.1141 6.65133 32.8574 6.798C32.6008 6.94467 32.4028 7.15 32.2634 7.414C32.1241 7.678 32.0544 7.98967 32.0544 8.349C32.0544 8.71567 32.1278 9.03833 32.2744 9.317C32.4211 9.58833 32.6301 9.801 32.9014 9.955C33.1728 10.1017 33.4844 10.175 33.8364 10.175C34.1298 10.175 34.3974 10.1237 34.6394 10.021C34.8888 9.91833 35.1014 9.76433 35.2774 9.559L35.9154 10.208C35.6661 10.5013 35.3581 10.725 34.9914 10.879C34.6321 11.033 34.2471 11.11 33.8364 11.11ZM39.5249 11.11C39.0409 11.11 38.6082 10.9927 38.2269 10.758C37.8456 10.516 37.5412 10.1897 37.3139 9.779C37.0939 9.36833 36.9839 8.90633 36.9839 8.393C36.9839 7.87967 37.0939 7.41767 37.3139 7.007C37.5412 6.59633 37.8456 6.27 38.2269 6.028C38.6082 5.786 39.0409 5.665 39.5249 5.665C39.9136 5.665 40.2656 5.74933 40.5809 5.918C40.8962 6.07933 41.1492 6.30667 41.3399 6.6C41.5379 6.886 41.6479 7.21967 41.6699 7.601V9.174C41.6479 9.548 41.5416 9.88167 41.3509 10.175C41.1602 10.4683 40.9072 10.6993 40.5919 10.868C40.2766 11.0293 39.9209 11.11 39.5249 11.11ZM39.6899 10.175C40.0199 10.175 40.3059 10.098 40.5479 9.944C40.7972 9.79 40.9916 9.581 41.1309 9.317C41.2702 9.04567 41.3399 8.73767 41.3399 8.393C41.3399 8.03367 41.2666 7.722 41.1199 7.458C40.9806 7.194 40.7862 6.985 40.5369 6.831C40.2949 6.677 40.0089 6.6 39.6789 6.6C39.3489 6.6 39.0592 6.677 38.8099 6.831C38.5606 6.985 38.3626 7.19767 38.2159 7.469C38.0766 7.733 38.0069 8.03733 38.0069 8.382C38.0069 8.734 38.0766 9.04567 38.2159 9.317C38.3626 9.581 38.5606 9.79 38.8099 9.944C39.0666 10.098 39.3599 10.175 39.6899 10.175ZM42.2749 11H41.2739V9.592L41.4609 8.316L41.2739 7.051V3.146H42.2749V11ZM48.7543 11.11C48.3583 11.11 47.999 11.0293 47.6763 10.868C47.361 10.6993 47.108 10.4683 46.9173 10.175C46.7267 9.88167 46.6203 9.548 46.5983 9.174V7.601C46.6203 7.21967 46.7267 6.886 46.9173 6.6C47.1153 6.30667 47.372 6.07933 47.6873 5.918C48.01 5.74933 48.3657 5.665 48.7543 5.665C49.231 5.665 49.66 5.786 50.0413 6.028C50.43 6.27 50.7343 6.59633 50.9543 7.007C51.1743 7.41767 51.2843 7.87967 51.2843 8.393C51.2843 8.90633 51.1743 9.36833 50.9543 9.779C50.7343 10.1897 50.43 10.516 50.0413 10.758C49.66 10.9927 49.231 11.11 48.7543 11.11ZM48.5893 10.175C48.9193 10.175 49.209 10.098 49.4583 9.944C49.7077 9.79 49.9057 9.581 50.0523 9.317C50.199 9.04567 50.2723 8.734 50.2723 8.382C50.2723 8.03733 50.199 7.72933 50.0523 7.458C49.9057 7.18667 49.7077 6.97767 49.4583 6.831C49.209 6.677 48.923 6.6 48.6003 6.6C48.2703 6.6 47.9807 6.677 47.7313 6.831C47.482 6.97767 47.2877 7.18667 47.1483 7.458C47.009 7.72933 46.9393 8.041 46.9393 8.393C46.9393 8.73767 47.0053 9.04567 47.1373 9.317C47.2767 9.581 47.471 9.79 47.7203 9.944C47.977 10.098 48.2667 10.175 48.5893 10.175ZM46.0043 11V3.146H46.9943V7.051L46.8073 8.316L46.9943 9.592V11H46.0043ZM53.9186 11.044L51.6526 5.775H52.7526L54.4356 9.9H54.0836L55.8546 5.775H56.9546L54.5126 11.044H53.9186ZM52.4226 13.189L53.9626 10.032L54.5126 11.044L53.5226 13.189H52.4226Z" fill="#6B6F80"/>
<g clip-path="url(#clip0_1019_72)">
<path d="M87.0171 5.69314C87.0171 6.10271 86.9231 6.47871 86.7351 6.82114C86.5471 7.15685 86.2584 7.42878 85.869 7.63692C85.4795 7.84507 84.9961 7.94914 84.4187 7.94914H83.3511V10.4871H81.6289V3.41699H84.4187C84.9827 3.41699 85.4594 3.51435 85.8488 3.70906C86.2382 3.90378 86.5303 4.17235 86.725 4.51478C86.9197 4.85721 87.0171 5.24999 87.0171 5.69314ZM84.2878 6.57942C84.6167 6.57942 84.8618 6.50221 85.023 6.34778C85.1841 6.19335 85.2647 5.97514 85.2647 5.69314C85.2647 5.41114 85.1841 5.19292 85.023 5.03849C84.8618 4.88407 84.6167 4.80685 84.2878 4.80685H83.3511V6.57942H84.2878ZM87.6488 7.66714C87.6488 7.08971 87.7561 6.58278 87.971 6.14635C88.1926 5.70992 88.4913 5.37421 88.8674 5.13921C89.2434 4.90421 89.663 4.78671 90.1263 4.78671C90.5224 4.78671 90.8682 4.86728 91.1637 5.02842C91.4658 5.18956 91.6975 5.40106 91.8586 5.66292V4.86728H93.5808V10.4871H91.8586V9.69149C91.6907 9.95335 91.4558 10.1649 91.1536 10.326C90.8581 10.4871 90.5124 10.5677 90.1163 10.5677C89.6596 10.5677 89.2434 10.4502 88.8674 10.2152C88.4913 9.97349 88.1926 9.6344 87.971 9.19799C87.7561 8.75485 87.6488 8.24454 87.6488 7.66714ZM91.8586 7.67721C91.8586 7.24749 91.7378 6.90842 91.496 6.65999C91.261 6.41156 90.9723 6.28735 90.6299 6.28735C90.2875 6.28735 89.9954 6.41156 89.7537 6.65999C89.5186 6.90171 89.4012 7.23742 89.4012 7.66714C89.4012 8.09685 89.5186 8.4393 89.7537 8.69442C89.9954 8.94288 90.2875 9.06706 90.6299 9.06706C90.9723 9.06706 91.261 8.94288 91.496 8.69442C91.7378 8.44597 91.8586 8.10692 91.8586 7.67721ZM100.645 4.86728L97.1199 13.1561H95.2668L96.5559 10.2958L94.2697 4.86728H96.1934L97.4926 8.38221L98.7817 4.86728H100.645ZM106.038 5.65285C105.911 5.41785 105.726 5.23992 105.485 5.11907C105.25 4.99149 104.971 4.92771 104.649 4.92771C104.091 4.92771 103.645 5.11235 103.309 5.48164C102.973 5.84421 102.806 6.33099 102.806 6.94199C102.806 7.59328 102.98 8.10356 103.329 8.47285C103.685 8.83542 104.172 9.01671 104.79 9.01671C105.213 9.01671 105.568 8.90925 105.857 8.69442C106.153 8.47959 106.367 8.17071 106.502 7.76785H104.316V6.49885H108.063V8.10021C107.935 8.52995 107.717 8.9294 107.408 9.29871C107.106 9.66802 106.72 9.96675 106.25 10.1951C105.78 10.4234 105.25 10.5375 104.659 10.5375C103.96 10.5375 103.336 10.3864 102.785 10.0843C102.242 9.7754 101.815 9.34907 101.506 8.80521C101.204 8.26135 101.053 7.64028 101.053 6.94199C101.053 6.24371 101.204 5.62264 101.506 5.07878C101.815 4.52821 102.242 4.10185 102.785 3.79971C103.329 3.49085 103.95 3.33642 104.649 3.33642C105.495 3.33642 106.206 3.54121 106.784 3.95078C107.368 4.36035 107.754 4.92771 107.942 5.65285H106.038ZM110.816 3.03428V10.4871H109.094V3.03428H110.816ZM113.008 4.28314C112.706 4.28314 112.458 4.19585 112.263 4.02128C112.075 3.83999 111.981 3.61842 111.981 3.35656C111.981 3.08799 112.075 2.86642 112.263 2.69185C112.458 2.51056 112.706 2.41992 113.008 2.41992C113.304 2.41992 113.545 2.51056 113.733 2.69185C113.928 2.86642 114.025 3.08799 114.025 3.35656C114.025 3.61842 113.928 3.83999 113.733 4.02128C113.545 4.19585 113.304 4.28314 113.008 4.28314ZM113.864 4.86728V10.4871H112.142V4.86728H113.864ZM114.847 7.66714C114.847 7.08971 114.955 6.58278 115.17 6.14635C115.391 5.70992 115.69 5.37421 116.066 5.13921C116.442 4.90421 116.862 4.78671 117.325 4.78671C117.694 4.78671 118.03 4.86392 118.332 5.01835C118.641 5.17278 118.883 5.38092 119.057 5.64278V3.03428H120.779V10.4871H119.057V9.68142C118.896 9.95002 118.664 10.1649 118.362 10.326C118.067 10.4871 117.721 10.5677 117.325 10.5677C116.862 10.5677 116.442 10.4502 116.066 10.2152C115.69 9.97349 115.391 9.6344 115.17 9.19799C114.955 8.75485 114.847 8.24454 114.847 7.66714ZM119.057 7.67721C119.057 7.24749 118.936 6.90842 118.695 6.65999C118.46 6.41156 118.171 6.28735 117.828 6.28735C117.486 6.28735 117.194 6.41156 116.952 6.65999C116.717 6.90171 116.6 7.23742 116.6 7.66714C116.6 8.09685 116.717 8.4393 116.952 8.69442C117.194 8.94288 117.486 9.06706 117.828 9.06706C118.171 9.06706 118.46 8.94288 118.695 8.69442C118.936 8.44597 119.057 8.10692 119.057 7.67721ZM127.4 7.58656C127.4 7.74771 127.39 7.91557 127.37 8.09014H123.473C123.499 8.43931 123.61 8.70783 123.805 8.89585C124.006 9.07714 124.251 9.16778 124.54 9.16778C124.97 9.16778 125.269 8.98649 125.436 8.62392H127.269C127.175 8.99323 127.004 9.32559 126.756 9.62099C126.514 9.9164 126.209 10.148 125.839 10.3159C125.47 10.4838 125.057 10.5677 124.601 10.5677C124.05 10.5677 123.56 10.4502 123.13 10.2152C122.7 9.98023 122.365 9.64447 122.123 9.20806C121.881 8.77166 121.76 8.26135 121.76 7.67721C121.76 7.09306 121.878 6.58278 122.113 6.14635C122.355 5.70992 122.69 5.37421 123.12 5.13921C123.55 4.90421 124.043 4.78671 124.601 4.78671C125.144 4.78671 125.628 4.90085 126.051 5.12914C126.474 5.35742 126.803 5.68306 127.038 6.10606C127.28 6.52906 127.4 7.02256 127.4 7.58656ZM125.638 7.13335C125.638 6.83792 125.537 6.60292 125.336 6.42835C125.134 6.25378 124.883 6.16649 124.58 6.16649C124.292 6.16649 124.047 6.25042 123.845 6.41828C123.65 6.58614 123.53 6.82449 123.483 7.13335H125.638Z" fill="black"/>
<path d="M69.6258 7.94899L77.1071 6.61284L62.4648 0.441255C62.4053 0.416695 62.3402 0.409193 62.2766 0.419589C62.2131 0.429985 62.1537 0.457869 62.1051 0.500115C62.0576 0.543982 62.0242 0.600945 62.0091 0.663805C61.994 0.726665 61.9978 0.7926 62.0201 0.853277L69.6258 7.94899Z" fill="#D580FF"/>
<path d="M69.3594 7.77488L66.8893 12.0616C66.8669 12.1223 66.8631 12.1882 66.8782 12.2511C66.8934 12.3139 66.9268 12.3709 66.9743 12.4147C67.0366 12.4675 67.115 12.4975 67.1966 12.4998C67.2419 12.5091 67.2887 12.5091 67.334 12.4998L77.1066 6.61279L69.3594 7.77488Z" fill="black"/>
</g>
<defs>
<clipPath id="clip0_1019_72">
<rect width="70.5" height="13.1703" fill="white" transform="translate(62 0.415039)"/>
</clipPath>
</defs>
</svg>
