<svg width="24" height="12" viewBox="0 0 24 12" fill="none" xmlns="http://www.w3.org/2000/svg">
<path d="M23.9586 5.9928C23.9586 5.74751 23.8605 5.51452 23.6888 5.34282L19.1264 0.780423C18.7707 0.424755 18.182 0.424755 17.8264 0.780423C17.4707 1.13609 17.4707 1.72478 17.8264 2.08045L20.8312 5.08524H0.9628C0.459959 5.08524 0.0429688 5.50223 0.0429688 6.00507C0.0429688 6.50792 0.459959 6.92491 0.9628 6.92491H20.8189L17.8264 9.91742C17.4707 10.2731 17.4707 10.8618 17.8264 11.2174C18.0103 11.4014 18.2434 11.4873 18.4764 11.4873C18.7094 11.4873 18.9424 11.4014 19.1264 11.2174L23.6765 6.6674C23.7624 6.58155 23.8359 6.47116 23.885 6.34851C23.885 6.33625 23.885 6.32395 23.8973 6.31168C23.9341 6.2013 23.9586 6.10318 23.9586 5.9928Z" fill="white"/>
</svg>
