<svg width="14" height="14" viewBox="0 0 14 14" fill="none" xmlns="http://www.w3.org/2000/svg">
<g clip-path="url(#clip0_1004_21)">
<mask id="mask0_1004_21" style="mask-type:luminance" maskUnits="userSpaceOnUse" x="0" y="0" width="14" height="14">
<path d="M6.90234 13.5C10.4922 13.5 13.4023 10.5899 13.4023 7C13.4023 3.41015 10.4922 0.5 6.90234 0.5C3.31249 0.5 0.402344 3.41015 0.402344 7C0.402344 10.5899 3.31249 13.5 6.90234 13.5Z" fill="white"/>
</mask>
<g mask="url(#mask0_1004_21)">
<path d="M0.402344 0.5L0.605469 1.05859L0.402344 1.64258V2.22656L1.21484 3.59766L0.402344 4.96875V5.78125L1.21484 7L0.402344 8.21875V9.03125L1.21484 10.4023L0.402344 11.7734V13.5L0.960938 13.2969L1.54492 13.5H2.12891L3.5 12.6875L4.87109 13.5H5.68359L6.90234 12.6875L8.12109 13.5H8.93359L10.3047 12.6875L11.6758 13.5H13.4023L13.1992 12.9414L13.4023 12.3574V11.7734L12.5898 10.4023L13.4023 9.03125V8.21875L12.5898 7L13.4023 5.78125V4.96875L12.5898 3.59766L13.4023 2.22656V0.5L12.8438 0.703125L12.2598 0.5H11.6758L10.3047 1.3125L8.93359 0.5H8.12109L6.90234 1.3125L5.68359 0.5H4.87109L3.5 1.3125L2.12891 0.5H0.402344Z" fill="#EEEEEE"/>
<path d="M8.93359 0.5V3.24219L11.6758 0.5H8.93359ZM13.4023 2.22656L10.6602 4.96875H13.4023V2.22656ZM0.402344 4.96875H3.14453L0.402344 2.22656V4.96875ZM2.12891 0.5L4.87109 3.24219V0.5H2.12891ZM4.87109 13.5V10.7578L2.12891 13.5H4.87109ZM0.402344 11.7734L3.14453 9.03125H0.402344V11.7734ZM13.4023 9.03125H10.6602L13.4023 11.7734V9.03125ZM11.6758 13.5L8.93359 10.7578V13.5H11.6758Z" fill="#0052B4"/>
<path d="M0.402344 0.5V1.64258L3.72852 4.96875H4.87109L0.402344 0.5ZM5.68359 0.5V5.78125H0.402344V8.21875H5.68359V13.5H8.12109V8.21875H13.4023V5.78125H8.12109V0.5H5.68359ZM12.2598 0.5L8.93359 3.82617V4.96875L13.4023 0.5H12.2598ZM4.87109 9.03125L0.402344 13.5H1.54492L4.87109 10.1738V9.03125ZM8.93359 9.03125L13.4023 13.5V12.3574L10.0762 9.03125H8.93359Z" fill="#D80027"/>
</g>
</g>
<defs>
<clipPath id="clip0_1004_21">
<rect width="13" height="13" fill="white" transform="translate(0.402344 0.5)"/>
</clipPath>
</defs>
</svg>
