<svg width="8" height="6" viewBox="0 0 8 6" fill="none" xmlns="http://www.w3.org/2000/svg">
<path d="M1.4741 0.327644L6.52029 0.327644C6.7195 0.327356 6.91473 0.383491 7.08337 0.489553C7.25201 0.595615 7.38716 0.747267 7.47319 0.926954C7.57389 1.14015 7.61268 1.37736 7.58513 1.61153C7.55758 1.8457 7.4648 2.06742 7.31737 2.25143L4.79427 5.30791C4.69526 5.42216 4.57284 5.51378 4.43531 5.57658C4.29779 5.63938 4.14837 5.67187 3.99719 5.67187C3.84601 5.67187 3.69659 5.63938 3.55907 5.57658C3.42154 5.51378 3.29912 5.42216 3.20011 5.30791L0.677012 2.25143C0.529579 2.06742 0.436801 1.8457 0.409251 1.61153C0.381701 1.37735 0.420489 1.14015 0.521193 0.926954C0.607219 0.747266 0.742373 0.595615 0.911012 0.489553C1.07965 0.383491 1.27488 0.327355 1.4741 0.327644Z" fill="#6B6F80"/>
</svg>
