<svg width="8" height="6" viewBox="0 0 8 6" fill="none" xmlns="http://www.w3.org/2000/svg">
<path d="M1.07175 0.327644L6.11794 0.327644C6.31716 0.327356 6.51239 0.383491 6.68103 0.489553C6.84966 0.595615 6.98482 0.747267 7.07084 0.926954C7.17155 1.14015 7.21034 1.37736 7.18279 1.61153C7.15524 1.8457 7.06246 2.06742 6.91502 2.25143L4.39193 5.30791C4.29291 5.42216 4.17049 5.51378 4.03297 5.57658C3.89545 5.63938 3.74603 5.67187 3.59485 5.67187C3.44366 5.67187 3.29425 5.63938 3.15672 5.57658C3.0192 5.51378 2.89678 5.42216 2.79776 5.30791L0.274669 2.25143C0.127235 2.06742 0.0344568 1.8457 0.00690718 1.61153C-0.0206424 1.37735 0.0181456 1.14015 0.118849 0.926954C0.204875 0.747266 0.340029 0.595615 0.508668 0.489553C0.677306 0.383491 0.872534 0.327355 1.07175 0.327644Z" fill="#6B6F80"/>
</svg>
