<svg width="227" height="116" viewBox="0 0 227 116" fill="none" xmlns="http://www.w3.org/2000/svg">
<path d="M105.121 14.9261L99.0647 10.0053L69.4937 32.8675L61.1371 30.4483L70.5478 26.8648L100.335 2.50642L105.121 14.9261Z" fill="url(#paint0_linear_1200_536)"/>
<path d="M101.52 18.4251L97.448 18.9607L38.7113 56.3223L34.7733 54.9831L61.1381 30.4772L69.4813 32.8876L99.0499 9.98857L101.52 18.4251Z" fill="url(#paint1_linear_1200_536)"/>
<path d="M110.537 28.3491L113.536 36.1527L110.96 36.6003L109.481 41.8288L105.32 34.0394L95.8973 28.2132L66.6729 46.7078L59.5725 46.7347L43.3323 57.5588L38.9344 56.1415L97.6445 18.8233L110.537 28.3491Z" fill="url(#paint2_linear_1200_536)"/>
<path d="M92.6488 34.0725L46.6377 64.3401L38.6743 63.8076L7.79373 84.2227L7.9707 83.6901L7.35132 81.8261L12.1294 78.5419L31.6841 65.4053L34.604 55.2865L34.8695 55.0202L38.8512 56.3516L42.8974 56.982L59.0098 46.6317H66.2657L96.4632 27.2114L106.387 32.7601L92.6488 34.0725Z" fill="url(#paint3_linear_1200_536)"/>
<path d="M96.0148 40.1058L89.8218 45.6827L86.0769 44.788L8.27607 95.2806L3.52219 95.293L6.15088 88.3102L7.66461 84.2222L38.626 63.7477L46.5495 64.3103L92.5375 34.1045L96.0148 40.1058Z" fill="url(#paint4_linear_1200_536)"/>
<path d="M123.766 56.3492L96.5227 45.6957L91.4435 50.7908L83.8247 46.9694L50.8099 69.8977L49.771 76.1509L17.6797 95.2578H8.3294L86.1334 44.7693L89.8274 45.6957L96.0609 40.1373L123.766 56.3492Z" fill="url(#paint5_linear_1200_536)"/>
<path d="M113.387 58.9326L97.3902 51.2474L94.6208 52.2648L91.4651 50.6901L96.4968 45.6056L113.387 58.9326Z" fill="url(#paint6_linear_1200_536)"/>
<path d="M91.4619 57.0233L87.2848 62.6543L96.8182 68.5633L81.6659 66.8666L60.7441 81.7551L58.3116 86.677L42.1245 95.2175L17.7345 95.2273L49.8044 76.1017L50.7949 69.7612L83.837 46.8848L91.4619 57.0233Z" fill="url(#paint7_linear_1200_536)"/>
<path d="M86.3573 73.5891L81.5723 80.2415L59.3386 95.3004L42.0373 95.3176L58.2024 86.7587L60.69 81.8284L81.6248 66.9434L86.3573 73.5891Z" fill="url(#paint8_linear_1200_536)"/>
<path d="M95.4648 95.2578L59.4204 95.2695L81.6136 80.2116L95.4648 95.2578Z" fill="url(#paint9_linear_1200_536)"/>
<path d="M119.103 81.1087L127.844 95.2578H95.4722L81.5987 80.2273L86.3619 73.5471L81.5987 66.9132L96.7671 68.6297L90.5702 64.8257L119.103 81.1087Z" fill="url(#paint10_linear_1200_536)"/>
<path d="M94.6004 52.2586L97.3838 51.2534L111.913 58.2338L132.844 73.3673L139.469 95.2578H127.89L119.15 81.0737L90.6479 64.7675L87.2522 62.7013L91.4273 57.0611L83.8008 46.8977L94.6004 52.2586Z" fill="url(#paint11_linear_1200_536)"/>
<path d="M105.846 33.3447L109.817 40.0796L110.436 36.2808L115.131 35.9607L118.866 39.9088L128.79 47.1647L142.63 58.9564L160.124 78.4972L187.168 95.2871H165.324L109.817 56.2055L96.4843 45.6763L123.718 56.3952L96.106 40.0796L92.6073 34.1036L96.4843 32.973L95.8223 28.5069L105.846 33.3447Z" fill="url(#paint12_linear_1200_536)"/>
<path d="M124.446 22.0345L134.094 23.9447L148.566 34.6418L152.882 44.8295L226.004 95.2588H220.926L175.86 64.6956C175.86 64.6956 173.067 64.3136 169.639 63.9315L99.5645 11.5921L99.0567 10.0639L98.4918 9.17845L100.326 2.55047H100.453L124.446 22.0345Z" fill="url(#paint13_linear_1200_536)"/>
<path d="M165.316 95.2578H139.44L132.832 73.4218L111.897 58.2702L113.341 58.9387L109.787 56.1534L165.316 95.2578Z" fill="url(#paint14_linear_1200_536)"/>
<path d="M156.646 62.5265C157.19 62.4173 164.261 63.1812 169.7 63.836C173.073 64.2725 175.901 64.5999 175.901 64.5999L221.047 95.2646H187.215L160.127 78.459L142.722 58.9253L127.709 47.4669L127.616 46.9511L113.459 36.3359L112.262 33.2804C127.057 43.2109 156.211 62.6356 156.646 62.5265Z" fill="url(#paint15_linear_1200_536)"/>
<path d="M169.629 63.8857C164.218 63.3068 157.076 62.4384 156.643 62.5831C156.066 62.6555 126.993 43.2604 112.203 33.3458L110.328 28.5694L97.4864 19.0167L99.0229 16.5398L99.5564 11.5247L169.629 63.8857Z" fill="url(#paint16_linear_1200_536)"/>
<defs>
<linearGradient id="paint0_linear_1200_536" x1="97.5595" y1="10.8619" x2="87.2922" y2="19.223" gradientUnits="userSpaceOnUse">
<stop stop-color="#2A2D3E"/>
<stop offset="1" stop-color="#5A395A"/>
</linearGradient>
<linearGradient id="paint1_linear_1200_536" x1="101.52" y1="33.1556" x2="34.7733" y2="33.1556" gradientUnits="userSpaceOnUse">
<stop stop-color="#2A2D3E"/>
<stop offset="1" stop-color="#8A47B3"/>
</linearGradient>
<linearGradient id="paint2_linear_1200_536" x1="94.7425" y1="45.8248" x2="39.0315" y2="81.9126" gradientUnits="userSpaceOnUse">
<stop stop-color="#2A2D3E"/>
<stop offset="1" stop-color="#4F216B"/>
</linearGradient>
<linearGradient id="paint3_linear_1200_536" x1="95.8342" y1="56.3516" x2="7.3513" y2="56.3516" gradientUnits="userSpaceOnUse">
<stop stop-color="#2A2D3E"/>
<stop offset="1" stop-color="#652A74"/>
</linearGradient>
<linearGradient id="paint4_linear_1200_536" x1="61.9595" y1="52.3907" x2="27.0185" y2="85.9241" gradientUnits="userSpaceOnUse">
<stop stop-color="#2A2D3E"/>
<stop offset="1" stop-color="#291A41"/>
</linearGradient>
<linearGradient id="paint5_linear_1200_536" x1="123.766" y1="67.6977" x2="8.3294" y2="67.6977" gradientUnits="userSpaceOnUse">
<stop stop-color="#2A2D3E"/>
<stop offset="1" stop-color="#9F53C3"/>
</linearGradient>
<linearGradient id="paint6_linear_1200_536" x1="91.0397" y1="61.8352" x2="64.8062" y2="79.7737" gradientUnits="userSpaceOnUse">
<stop stop-color="#2A2D3E"/>
<stop offset="1" stop-color="#8B53C3"/>
</linearGradient>
<linearGradient id="paint7_linear_1200_536" x1="66.8476" y1="74.2517" x2="33.2369" y2="98.678" gradientUnits="userSpaceOnUse">
<stop stop-color="#2A2D3E"/>
<stop offset="1" stop-color="#AD53C3"/>
</linearGradient>
<linearGradient id="paint8_linear_1200_536" x1="101.236" y1="60.2219" x2="47.2534" y2="96.7461" gradientUnits="userSpaceOnUse">
<stop stop-color="#20222C"/>
<stop offset="1" stop-color="#23073F"/>
</linearGradient>
<linearGradient id="paint9_linear_1200_536" x1="77.7544" y1="95.001" x2="49.3362" y2="118.789" gradientUnits="userSpaceOnUse">
<stop stop-color="#2A2D3E"/>
<stop offset="1" stop-color="#7E53C3"/>
</linearGradient>
<linearGradient id="paint10_linear_1200_536" x1="127.844" y1="80.0416" x2="81.5987" y2="80.0416" gradientUnits="userSpaceOnUse">
<stop stop-color="#270958"/>
<stop offset="1" stop-color="#A74DBE"/>
<stop offset="1" stop-color="#421B4C"/>
</linearGradient>
<linearGradient id="paint11_linear_1200_536" x1="139.469" y1="71.0779" x2="83.8008" y2="71.0779" gradientUnits="userSpaceOnUse">
<stop stop-color="#690FFC"/>
<stop offset="1" stop-color="#614565"/>
</linearGradient>
<linearGradient id="paint12_linear_1200_536" x1="187.168" y1="61.8972" x2="92.6073" y2="61.8972" gradientUnits="userSpaceOnUse">
<stop stop-color="#300FFC"/>
<stop offset="1" stop-color="#BE4D9E"/>
</linearGradient>
<linearGradient id="paint13_linear_1200_536" x1="226.004" y1="48.9046" x2="99.0567" y2="48.9046" gradientUnits="userSpaceOnUse">
<stop stop-color="#2F2954"/>
<stop offset="1" stop-color="#622D74"/>
</linearGradient>
<linearGradient id="paint14_linear_1200_536" x1="165.316" y1="75.7058" x2="109.787" y2="75.7058" gradientUnits="userSpaceOnUse">
<stop stop-color="#292432"/>
<stop offset="1" stop-color="#934DBE"/>
</linearGradient>
<linearGradient id="paint15_linear_1200_536" x1="221.047" y1="64.2727" x2="112.262" y2="64.2727" gradientUnits="userSpaceOnUse">
<stop stop-color="#4D0FFC"/>
<stop offset="1" stop-color="#BE4DB3"/>
</linearGradient>
<linearGradient id="paint16_linear_1200_536" x1="169.629" y1="37.7603" x2="97.4864" y2="37.7603" gradientUnits="userSpaceOnUse">
<stop stop-color="#14008C"/>
<stop offset="1" stop-color="#AE4DBE"/>
</linearGradient>
</defs>
</svg>
