<svg width="214" height="109" viewBox="0 0 214 109" fill="none" xmlns="http://www.w3.org/2000/svg">
<path d="M99.1237 14.0746L93.4129 9.4345L65.5291 30.9923L57.6494 28.7111L66.5231 25.332L94.6106 2.36351L99.1237 14.0746Z" fill="url(#paint0_linear_1200_497)"/>
<path d="M95.7266 17.3745L91.8874 17.8796L36.5021 53.1094L32.7887 51.8467L57.6492 28.7389L65.5164 31.0118L93.3979 9.41939L95.7266 17.3745Z" fill="url(#paint1_linear_1200_497)"/>
<path d="M104.233 26.7333L107.061 34.0917L104.632 34.5138L103.237 39.444L99.3132 32.099L90.4284 26.6052L62.8715 44.0445L56.1761 44.0699L40.8626 54.2764L36.7156 52.94L92.0759 17.7511L104.233 26.7333Z" fill="url(#paint2_linear_1200_497)"/>
<path d="M87.3702 32.1283L43.9844 60.6689L36.4753 60.1667L7.35675 79.417L7.52361 78.9148L6.93957 77.1572L11.445 74.0604L29.884 61.6733L32.6373 52.1319L32.8876 51.8808L36.6422 53.1362L40.4575 53.7307L55.6505 43.9709H62.4925L90.9669 25.6587L100.324 30.8907L87.3702 32.1283Z" fill="url(#paint3_linear_1200_497)"/>
<path d="M90.5355 37.8179L84.6959 43.0766L81.1646 42.2329L7.80298 89.8445L3.32034 89.8562L5.79904 83.2718L7.2264 79.4171L36.4212 60.1108L43.8926 60.6413L87.2566 32.159L90.5355 37.8179Z" fill="url(#paint4_linear_1200_497)"/>
<path d="M116.707 53.1337L91.0185 43.088L86.2291 47.8925L79.045 44.2891L47.914 65.9092L46.9344 71.8056L16.6742 89.8223H7.85736L81.222 42.2145L84.7052 43.088L90.5831 37.8468L116.707 53.1337Z" fill="url(#paint5_linear_1200_497)"/>
<path d="M106.918 55.5723L91.8342 48.3256L89.2228 49.2849L86.2471 47.8L90.9917 43.0057L106.918 55.5723Z" fill="url(#paint6_linear_1200_497)"/>
<path d="M86.2476 53.771L82.3089 59.0807L91.2982 64.6526L77.0105 63.0527L57.2825 77.0917L54.9888 81.7327L39.7253 89.786L16.7269 89.7952L46.967 71.7609L47.901 65.7822L79.0577 44.211L86.2476 53.771Z" fill="url(#paint7_linear_1200_497)"/>
<path d="M81.4314 69.3907L76.9194 75.6635L55.9543 89.8631L39.6402 89.8793L54.883 81.8089L57.2287 77.1598L76.969 63.1241L81.4314 69.3907Z" fill="url(#paint8_linear_1200_497)"/>
<path d="M90.0234 89.8223L56.0356 89.8333L76.9625 75.6345L90.0234 89.8223Z" fill="url(#paint9_linear_1200_497)"/>
<path d="M112.309 76.4805L120.551 89.8223H90.0263L76.9444 75.6494L81.4358 69.3503L76.9444 63.095L91.2473 64.7135L85.404 61.1265L112.309 76.4805Z" fill="url(#paint10_linear_1200_497)"/>
<path d="M89.2034 49.2765L91.828 48.3287L105.528 54.9108L125.265 69.1808L131.512 89.8223H120.593L112.352 76.4474L85.4765 61.0717L82.2745 59.1234L86.2114 53.805L79.02 44.2215L89.2034 49.2765Z" fill="url(#paint11_linear_1200_497)"/>
<path d="M99.8062 31.4434L103.551 37.7941L104.135 34.212L108.562 33.9102L112.084 37.633L121.441 44.4749L134.491 55.5938L150.987 74.0197L176.488 89.8516H155.891L103.551 52.9999L90.9788 43.0714L116.658 53.1788L90.6221 37.7941L87.323 32.159L90.9788 31.0929L90.3546 26.8817L99.8062 31.4434Z" fill="url(#paint12_linear_1200_497)"/>
<path d="M117.35 20.7789L126.448 22.5801L140.094 32.6669L144.164 42.2733L213.113 89.8252H208.325L165.83 61.0059C165.83 61.0059 163.197 60.6457 159.965 60.2854L93.8883 10.9323L93.4095 9.49138L92.8767 8.65643L94.6065 2.40663H94.7262L117.35 20.7789Z" fill="url(#paint13_linear_1200_497)"/>
<path d="M155.891 89.8223H131.49L125.259 69.2321L105.519 54.9451L106.881 55.5754L103.529 52.9491L155.891 89.8223Z" fill="url(#paint14_linear_1200_497)"/>
<path d="M147.715 58.9599C148.228 58.857 154.896 59.5773 160.025 60.1947C163.205 60.6063 165.872 60.915 165.872 60.915L208.441 89.8301H176.54L150.998 73.9834L134.585 55.5642L120.43 44.7596L120.342 44.2732L106.992 34.2637L105.864 31.3825C119.814 40.7465 147.305 59.0628 147.715 58.9599Z" fill="url(#paint15_linear_1200_497)"/>
<path d="M159.953 60.2422C154.851 59.6963 148.117 58.8774 147.708 59.0139C147.164 59.0821 119.75 40.7937 105.804 31.4448L104.036 26.941L91.927 17.9332L93.3757 15.5977L93.8788 10.8688L159.953 60.2422Z" fill="url(#paint16_linear_1200_497)"/>
<defs>
<linearGradient id="paint0_linear_1200_497" x1="91.9935" y1="10.2423" x2="82.3121" y2="18.1263" gradientUnits="userSpaceOnUse">
<stop stop-color="#2A2D3E"/>
<stop offset="1" stop-color="#5A395A"/>
</linearGradient>
<linearGradient id="paint1_linear_1200_497" x1="95.7266" y1="31.2645" x2="32.7887" y2="31.2645" gradientUnits="userSpaceOnUse">
<stop stop-color="#2A2D3E"/>
<stop offset="1" stop-color="#8A47B3"/>
</linearGradient>
<linearGradient id="paint2_linear_1200_497" x1="89.3394" y1="43.2119" x2="36.8072" y2="77.2406" gradientUnits="userSpaceOnUse">
<stop stop-color="#2A2D3E"/>
<stop offset="1" stop-color="#4F216B"/>
</linearGradient>
<linearGradient id="paint3_linear_1200_497" x1="90.3738" y1="53.1362" x2="6.93956" y2="53.1362" gradientUnits="userSpaceOnUse">
<stop stop-color="#2A2D3E"/>
<stop offset="1" stop-color="#652A74"/>
</linearGradient>
<linearGradient id="paint4_linear_1200_497" x1="58.4233" y1="49.4018" x2="25.476" y2="81.0219" gradientUnits="userSpaceOnUse">
<stop stop-color="#2A2D3E"/>
<stop offset="1" stop-color="#291A41"/>
</linearGradient>
<linearGradient id="paint5_linear_1200_497" x1="116.707" y1="63.8347" x2="7.85736" y2="63.8347" gradientUnits="userSpaceOnUse">
<stop stop-color="#2A2D3E"/>
<stop offset="1" stop-color="#9F53C3"/>
</linearGradient>
<linearGradient id="paint6_linear_1200_497" x1="85.846" y1="58.3093" x2="61.1093" y2="75.2242" gradientUnits="userSpaceOnUse">
<stop stop-color="#2A2D3E"/>
<stop offset="1" stop-color="#8B53C3"/>
</linearGradient>
<linearGradient id="paint7_linear_1200_497" x1="63.0377" y1="70.0164" x2="31.3449" y2="93.0491" gradientUnits="userSpaceOnUse">
<stop stop-color="#2A2D3E"/>
<stop offset="1" stop-color="#AD53C3"/>
</linearGradient>
<linearGradient id="paint8_linear_1200_497" x1="95.4616" y1="56.7861" x2="44.5587" y2="91.2264" gradientUnits="userSpaceOnUse">
<stop stop-color="#20222C"/>
<stop offset="1" stop-color="#23073F"/>
</linearGradient>
<linearGradient id="paint9_linear_1200_497" x1="73.3235" y1="89.5801" x2="46.5268" y2="112.011" gradientUnits="userSpaceOnUse">
<stop stop-color="#2A2D3E"/>
<stop offset="1" stop-color="#7E53C3"/>
</linearGradient>
<linearGradient id="paint10_linear_1200_497" x1="120.551" y1="75.4743" x2="76.9444" y2="75.4743" gradientUnits="userSpaceOnUse">
<stop stop-color="#270958"/>
<stop offset="1" stop-color="#A74DBE"/>
<stop offset="1" stop-color="#421B4C"/>
</linearGradient>
<linearGradient id="paint11_linear_1200_497" x1="131.512" y1="67.022" x2="79.02" y2="67.022" gradientUnits="userSpaceOnUse">
<stop stop-color="#690FFC"/>
<stop offset="1" stop-color="#614565"/>
</linearGradient>
<linearGradient id="paint12_linear_1200_497" x1="176.488" y1="58.3668" x2="87.323" y2="58.3668" gradientUnits="userSpaceOnUse">
<stop stop-color="#300FFC"/>
<stop offset="1" stop-color="#BE4D9E"/>
</linearGradient>
<linearGradient id="paint13_linear_1200_497" x1="213.113" y1="46.1159" x2="93.4095" y2="46.1159" gradientUnits="userSpaceOnUse">
<stop stop-color="#2F2954"/>
<stop offset="1" stop-color="#622D74"/>
</linearGradient>
<linearGradient id="paint14_linear_1200_497" x1="155.891" y1="71.3858" x2="103.529" y2="71.3858" gradientUnits="userSpaceOnUse">
<stop stop-color="#292432"/>
<stop offset="1" stop-color="#934DBE"/>
</linearGradient>
<linearGradient id="paint15_linear_1200_497" x1="208.441" y1="60.6064" x2="105.864" y2="60.6064" gradientUnits="userSpaceOnUse">
<stop stop-color="#4D0FFC"/>
<stop offset="1" stop-color="#BE4DB3"/>
</linearGradient>
<linearGradient id="paint16_linear_1200_497" x1="159.953" y1="35.6074" x2="91.9269" y2="35.6074" gradientUnits="userSpaceOnUse">
<stop stop-color="#14008C"/>
<stop offset="1" stop-color="#AE4DBE"/>
</linearGradient>
</defs>
</svg>
