<svg width="175" height="89" viewBox="0 0 175 89" fill="none" xmlns="http://www.w3.org/2000/svg">
<path d="M93.0695 11.4916L97.7323 7.70301L120.499 25.3048L126.933 23.4422L119.688 20.6832L96.7544 1.9296L93.0695 11.4916Z" fill="url(#paint0_linear_1200_569)"/>
<path d="M95.8438 14.186L98.9784 14.5984L144.2 43.3633L147.232 42.3323L126.934 23.465L120.51 25.3208L97.7451 7.69076L95.8438 14.186Z" fill="url(#paint1_linear_1200_569)"/>
<path d="M88.8994 21.8267L86.5907 27.8348L88.5741 28.1793L89.7126 32.2048L92.9165 26.2077L100.171 21.7221L122.671 35.9611L128.138 35.9818L140.641 44.3154L144.027 43.2242L98.8257 14.4928L88.8994 21.8267Z" fill="url(#paint2_linear_1200_569)"/>
<path d="M102.671 26.232L138.095 49.5351L144.226 49.1251L168.001 64.8428L167.865 64.4327L168.342 62.9977L164.663 60.4692L149.608 50.3552L147.36 42.5647L147.155 42.3597L144.09 43.3847L140.974 43.8701L128.569 35.9013H122.983L99.7339 20.9496L92.0938 25.2215L102.671 26.232Z" fill="url(#paint3_linear_1200_569)"/>
<path d="M100.084 30.8777L104.852 35.1714L107.735 34.4826L167.634 73.3571L171.294 73.3666L169.27 67.9905L168.105 64.8432L144.268 49.0798L138.167 49.5129L102.761 26.2573L100.084 30.8777Z" fill="url(#paint4_linear_1200_569)"/>
<path d="M78.7148 43.383L99.6893 35.1807L103.6 39.1035L109.466 36.1614L134.884 53.814L135.684 58.6284L160.391 73.3389H167.59L107.688 34.4675L104.844 35.1807L100.045 30.9013L78.7148 43.383Z" fill="url(#paint5_linear_1200_569)"/>
<path d="M86.707 45.373L99.0228 39.4562L101.155 40.2394L103.585 39.0271L99.7107 35.1125L86.707 45.373Z" fill="url(#paint6_linear_1200_569)"/>
<path d="M103.585 43.9032L106.801 48.2386L99.4609 52.7879L111.127 51.4817L127.235 62.9444L129.107 66.7337L141.57 73.3091L160.348 73.3167L135.657 58.5918L134.894 53.7102L109.455 36.0976L103.585 43.9032Z" fill="url(#paint7_linear_1200_569)"/>
<path d="M107.519 56.6561L111.203 61.7778L128.321 73.3717L141.641 73.3849L129.196 66.7954L127.281 62.9995L111.163 51.5395L107.519 56.6561Z" fill="url(#paint8_linear_1200_569)"/>
<path d="M100.504 73.3389L128.255 73.3479L111.168 61.7547L100.504 73.3389Z" fill="url(#paint9_linear_1200_569)"/>
<path d="M82.3034 62.4454L75.5742 73.3389H100.497L111.178 61.7668L107.511 56.6237L111.178 51.5162L99.5003 52.8377L104.271 49.909L82.3034 62.4454Z" fill="url(#paint10_linear_1200_569)"/>
<path d="M101.169 40.2336L99.0264 39.4597L87.8402 44.8339L71.7252 56.4853L66.625 73.3389H75.5397L82.2685 62.4184L104.212 49.8642L106.827 48.2735L103.612 43.9311L109.484 36.1062L101.169 40.2336Z" fill="url(#paint11_linear_1200_569)"/>
<path d="M92.5127 25.6726L89.455 30.8578L88.9783 27.9331L85.3636 27.6866L82.4883 30.7263L74.8481 36.3126L64.1924 45.3911L50.7239 60.4357L29.9023 73.3623H46.7198L89.455 43.2732L99.7201 35.1667L78.753 43.4193L100.011 30.8578L102.705 26.2568L99.7201 25.3864L100.23 21.9479L92.5127 25.6726Z" fill="url(#paint12_linear_1200_569)"/>
<path d="M78.1898 16.9651L70.7617 18.4358L59.6197 26.6715L56.2966 34.5151L0 73.3408H3.90949L38.6062 49.8101C38.6062 49.8101 40.7564 49.516 43.3953 49.2218L97.3462 8.92545L97.7372 7.74891L98.1722 7.06718L96.7598 1.96427H96.6621L78.1898 16.9651Z" fill="url(#paint13_linear_1200_569)"/>
<path d="M46.7227 73.3389H66.6453L71.7328 56.5272L87.8505 44.8619L86.7389 45.3766L89.4751 43.2322L46.7227 73.3389Z" fill="url(#paint14_linear_1200_569)"/>
<path d="M53.3988 48.1395C52.98 48.0554 47.536 48.6436 43.3483 49.1477C40.7519 49.4837 38.5743 49.7358 38.5743 49.7358L3.81641 73.3447H29.8639L50.7187 60.406L64.1193 45.3669L75.6773 36.545L75.7492 36.1479L86.6491 27.9752L87.5704 25.6227C76.1799 33.2683 53.7338 48.2235 53.3988 48.1395Z" fill="url(#paint15_linear_1200_569)"/>
<path d="M43.4062 49.1865C47.572 48.7408 53.0707 48.0722 53.404 48.1836C53.8483 48.2393 76.2321 33.307 87.6183 25.6737L89.0625 21.9963L98.9491 14.6416L97.7661 12.7347L97.3554 8.87354L43.4062 49.1865Z" fill="url(#paint16_linear_1200_569)"/>
<defs>
<linearGradient id="paint0_linear_1200_569" x1="98.8912" y1="8.36255" x2="106.796" y2="14.7998" gradientUnits="userSpaceOnUse">
<stop stop-color="#2A2D3E"/>
<stop offset="1" stop-color="#5A395A"/>
</linearGradient>
<linearGradient id="paint1_linear_1200_569" x1="95.8438" y1="25.5271" x2="147.232" y2="25.5271" gradientUnits="userSpaceOnUse">
<stop stop-color="#2A2D3E"/>
<stop offset="1" stop-color="#8A47B3"/>
</linearGradient>
<linearGradient id="paint2_linear_1200_569" x1="101.06" y1="35.2813" x2="143.952" y2="63.0655" gradientUnits="userSpaceOnUse">
<stop stop-color="#2A2D3E"/>
<stop offset="1" stop-color="#4F216B"/>
</linearGradient>
<linearGradient id="paint3_linear_1200_569" x1="100.218" y1="43.3847" x2="168.342" y2="43.3847" gradientUnits="userSpaceOnUse">
<stop stop-color="#2A2D3E"/>
<stop offset="1" stop-color="#652A74"/>
</linearGradient>
<linearGradient id="paint4_linear_1200_569" x1="126.303" y1="40.336" x2="153.204" y2="66.1535" gradientUnits="userSpaceOnUse">
<stop stop-color="#2A2D3E"/>
<stop offset="1" stop-color="#291A41"/>
</linearGradient>
<linearGradient id="paint5_linear_1200_569" x1="78.7148" y1="52.1202" x2="167.59" y2="52.1202" gradientUnits="userSpaceOnUse">
<stop stop-color="#2A2D3E"/>
<stop offset="1" stop-color="#9F53C3"/>
</linearGradient>
<linearGradient id="paint6_linear_1200_569" x1="103.912" y1="47.6078" x2="124.109" y2="61.4187" gradientUnits="userSpaceOnUse">
<stop stop-color="#2A2D3E"/>
<stop offset="1" stop-color="#8B53C3"/>
</linearGradient>
<linearGradient id="paint7_linear_1200_569" x1="122.535" y1="57.1675" x2="148.412" y2="75.9734" gradientUnits="userSpaceOnUse">
<stop stop-color="#2A2D3E"/>
<stop offset="1" stop-color="#AD53C3"/>
</linearGradient>
<linearGradient id="paint8_linear_1200_569" x1="96.0636" y1="46.3646" x2="137.625" y2="74.4848" gradientUnits="userSpaceOnUse">
<stop stop-color="#20222C"/>
<stop offset="1" stop-color="#23073F"/>
</linearGradient>
<linearGradient id="paint9_linear_1200_569" x1="114.139" y1="73.1412" x2="136.019" y2="91.4555" gradientUnits="userSpaceOnUse">
<stop stop-color="#2A2D3E"/>
<stop offset="1" stop-color="#7E53C3"/>
</linearGradient>
<linearGradient id="paint10_linear_1200_569" x1="75.5742" y1="61.6239" x2="111.178" y2="61.6239" gradientUnits="userSpaceOnUse">
<stop stop-color="#270958"/>
<stop offset="1" stop-color="#A74DBE"/>
<stop offset="1" stop-color="#421B4C"/>
</linearGradient>
<linearGradient id="paint11_linear_1200_569" x1="66.625" y1="54.7226" x2="109.484" y2="54.7226" gradientUnits="userSpaceOnUse">
<stop stop-color="#690FFC"/>
<stop offset="1" stop-color="#614565"/>
</linearGradient>
<linearGradient id="paint12_linear_1200_569" x1="29.9023" y1="47.6552" x2="102.705" y2="47.6552" gradientUnits="userSpaceOnUse">
<stop stop-color="#300FFC"/>
<stop offset="1" stop-color="#BE4D9E"/>
</linearGradient>
<linearGradient id="paint13_linear_1200_569" x1="0" y1="37.6525" x2="97.7372" y2="37.6525" gradientUnits="userSpaceOnUse">
<stop stop-color="#2F2954"/>
<stop offset="1" stop-color="#622D74"/>
</linearGradient>
<linearGradient id="paint14_linear_1200_569" x1="46.7227" y1="58.2857" x2="89.4751" y2="58.2857" gradientUnits="userSpaceOnUse">
<stop stop-color="#292432"/>
<stop offset="1" stop-color="#934DBE"/>
</linearGradient>
<linearGradient id="paint15_linear_1200_569" x1="3.81641" y1="49.4839" x2="87.5704" y2="49.4839" gradientUnits="userSpaceOnUse">
<stop stop-color="#4D0FFC"/>
<stop offset="1" stop-color="#BE4DB3"/>
</linearGradient>
<linearGradient id="paint16_linear_1200_569" x1="43.4062" y1="29.0724" x2="98.9491" y2="29.0724" gradientUnits="userSpaceOnUse">
<stop stop-color="#14008C"/>
<stop offset="1" stop-color="#AE4DBE"/>
</linearGradient>
</defs>
</svg>
