<svg width="71" height="14" viewBox="0 0 71 14" fill="none" xmlns="http://www.w3.org/2000/svg">
<g clip-path="url(#clip0_1200_604)">
<path d="M25.0171 5.69314C25.0171 6.10271 24.9231 6.47871 24.7351 6.82114C24.5471 7.15685 24.2584 7.42878 23.869 7.63692C23.4795 7.84507 22.9961 7.94914 22.4187 7.94914H21.3511V10.4871H19.6289V3.41699H22.4187C22.9827 3.41699 23.4594 3.51435 23.8488 3.70906C24.2382 3.90378 24.5303 4.17235 24.725 4.51478C24.9197 4.85721 25.0171 5.24999 25.0171 5.69314ZM22.2878 6.57942C22.6167 6.57942 22.8618 6.50221 23.023 6.34778C23.1841 6.19335 23.2647 5.97514 23.2647 5.69314C23.2647 5.41114 23.1841 5.19292 23.023 5.03849C22.8618 4.88407 22.6167 4.80685 22.2878 4.80685H21.3511V6.57942H22.2878ZM25.6488 7.66714C25.6488 7.08971 25.7561 6.58278 25.971 6.14635C26.1926 5.70992 26.4913 5.37421 26.8674 5.13921C27.2434 4.90421 27.663 4.78671 28.1263 4.78671C28.5224 4.78671 28.8682 4.86728 29.1637 5.02842C29.4658 5.18956 29.6975 5.40106 29.8586 5.66292V4.86728H31.5808V10.4871H29.8586V9.69149C29.6907 9.95335 29.4558 10.1649 29.1536 10.326C28.8581 10.4871 28.5124 10.5677 28.1163 10.5677C27.6596 10.5677 27.2434 10.4502 26.8674 10.2152C26.4913 9.97349 26.1926 9.6344 25.971 9.19799C25.7561 8.75485 25.6488 8.24454 25.6488 7.66714ZM29.8586 7.67721C29.8586 7.24749 29.7378 6.90842 29.496 6.65999C29.261 6.41156 28.9723 6.28735 28.6299 6.28735C28.2875 6.28735 27.9954 6.41156 27.7537 6.65999C27.5186 6.90171 27.4012 7.23742 27.4012 7.66714C27.4012 8.09685 27.5186 8.4393 27.7537 8.69442C27.9954 8.94288 28.2875 9.06706 28.6299 9.06706C28.9723 9.06706 29.261 8.94288 29.496 8.69442C29.7378 8.44597 29.8586 8.10692 29.8586 7.67721ZM38.6449 4.86728L35.1199 13.1561H33.2668L34.5559 10.2958L32.2697 4.86728H34.1934L35.4926 8.38221L36.7817 4.86728H38.6449ZM44.0385 5.65285C43.9109 5.41785 43.7263 5.23992 43.4846 5.11906C43.2495 4.99149 42.9709 4.92771 42.6486 4.92771C42.0913 4.92771 41.6448 5.11235 41.3091 5.48164C40.9734 5.84421 40.8056 6.33099 40.8056 6.94199C40.8056 7.59328 40.9801 8.10356 41.3293 8.47285C41.6851 8.83542 42.1719 9.01671 42.7896 9.01671C43.2126 9.01671 43.5685 8.90925 43.8572 8.69442C44.1526 8.47959 44.3674 8.17071 44.5018 7.76785H42.3163V6.49885H46.0628V8.10021C45.9352 8.52995 45.717 8.9294 45.4082 9.29871C45.1061 9.66802 44.7199 9.96675 44.25 10.1951C43.78 10.4234 43.2495 10.5375 42.6587 10.5375C41.9604 10.5375 41.3359 10.3864 40.7854 10.0843C40.2416 9.7754 39.8151 9.34907 39.5063 8.80521C39.2042 8.26135 39.0531 7.64028 39.0531 6.94199C39.0531 6.24371 39.2042 5.62264 39.5063 5.07878C39.8151 4.52821 40.2416 4.10185 40.7854 3.79971C41.3293 3.49085 41.9503 3.33642 42.6486 3.33642C43.4946 3.33642 44.2063 3.54121 44.7838 3.95078C45.3679 4.36035 45.754 4.92771 45.942 5.65285H44.0385ZM48.8165 3.03428V10.4871H47.0942V3.03428H48.8165ZM51.0081 4.28314C50.706 4.28314 50.4576 4.19585 50.2629 4.02128C50.0748 3.83999 49.9809 3.61842 49.9809 3.35656C49.9809 3.08799 50.0748 2.86642 50.2629 2.69185C50.4576 2.51056 50.706 2.41992 51.0081 2.41992C51.3036 2.41992 51.5453 2.51056 51.7333 2.69185C51.928 2.86642 52.0254 3.08799 52.0254 3.35656C52.0254 3.61842 51.928 3.83999 51.7333 4.02128C51.5453 4.19585 51.3036 4.28314 51.0081 4.28314ZM51.8642 4.86728V10.4871H50.142V4.86728H51.8642ZM52.8473 7.66714C52.8473 7.08971 52.9548 6.58278 53.1696 6.14635C53.3912 5.70992 53.69 5.37421 54.066 5.13921C54.442 4.90421 54.8616 4.78671 55.3249 4.78671C55.6942 4.78671 56.0299 4.86392 56.3321 5.01835C56.6409 5.17278 56.8827 5.38092 57.0572 5.64278V3.03428H58.7794V10.4871H57.0572V9.68142C56.8961 9.95002 56.6644 10.1649 56.3623 10.326C56.0669 10.4871 55.721 10.5677 55.3249 10.5677C54.8616 10.5677 54.442 10.4502 54.066 10.2152C53.69 9.97349 53.3912 9.6344 53.1696 9.19799C52.9548 8.75485 52.8473 8.24454 52.8473 7.66714ZM57.0572 7.67721C57.0572 7.24749 56.9363 6.90842 56.6946 6.65999C56.4597 6.41156 56.1709 6.28735 55.8285 6.28735C55.4861 6.28735 55.194 6.41156 54.9523 6.65999C54.7173 6.90171 54.5998 7.23742 54.5998 7.66714C54.5998 8.09685 54.7173 8.4393 54.9523 8.69442C55.194 8.94288 55.4861 9.06706 55.8285 9.06706C56.1709 9.06706 56.4597 8.94288 56.6946 8.69442C56.9363 8.44597 57.0572 8.10692 57.0572 7.67721ZM65.4004 7.58656C65.4004 7.74771 65.3903 7.91557 65.3702 8.09014H61.4725C61.4994 8.43931 61.6102 8.70783 61.8049 8.89585C62.0063 9.07714 62.2514 9.16778 62.5401 9.16778C62.9698 9.16778 63.2686 8.98649 63.4364 8.62392H65.2694C65.1755 8.99323 65.0043 9.32559 64.7558 9.62099C64.5141 9.9164 64.2086 10.148 63.8393 10.3159C63.4701 10.4838 63.0571 10.5677 62.6005 10.5677C62.05 10.5677 61.5598 10.4502 61.1301 10.2152C60.7004 9.98023 60.3647 9.64447 60.1229 9.20806C59.8812 8.77166 59.7604 8.26135 59.7604 7.67721C59.7604 7.09306 59.8779 6.58278 60.1129 6.14635C60.3546 5.70992 60.6904 5.37421 61.12 5.13921C61.5498 4.90421 62.0433 4.78671 62.6005 4.78671C63.1444 4.78671 63.6278 4.90085 64.0508 5.12914C64.4738 5.35742 64.8028 5.68306 65.0378 6.10606C65.2795 6.52906 65.4004 7.02256 65.4004 7.58656ZM63.6379 7.13335C63.6379 6.83792 63.5372 6.60292 63.3357 6.42835C63.1343 6.25378 62.8825 6.16649 62.5804 6.16649C62.2917 6.16649 62.0466 6.25042 61.8452 6.41828C61.6505 6.58614 61.5296 6.82449 61.4826 7.13335H63.6379Z" fill="black"/>
<path d="M7.62583 7.94899L15.1071 6.61284L0.464844 0.441255C0.405335 0.416695 0.340164 0.409193 0.276632 0.419589C0.2131 0.429985 0.153718 0.457869 0.105142 0.500115C0.0576439 0.543982 0.0242159 0.600945 0.00908296 0.663805C-0.00604995 0.726665 -0.0022086 0.7926 0.0201215 0.853277L7.62583 7.94899Z" fill="#D580FF"/>
<path d="M7.36134 7.77537L4.89122 12.0621C4.86888 12.1227 4.86505 12.1887 4.88018 12.2516C4.89531 12.3144 4.92874 12.3713 4.97623 12.4152C5.03855 12.468 5.11697 12.4979 5.1986 12.5003C5.2439 12.5096 5.29063 12.5096 5.33594 12.5003L15.1086 6.61328L7.36134 7.77537Z" fill="black"/>
</g>
<defs>
<clipPath id="clip0_1200_604">
<rect width="70.5" height="13.1703" fill="white" transform="translate(0 0.415039)"/>
</clipPath>
</defs>
</svg>
