<svg width="197" height="37" viewBox="0 0 197 37" fill="none" xmlns="http://www.w3.org/2000/svg">
<path d="M81.0838 14.747C81.0838 15.8915 80.821 16.9422 80.2958 17.899C79.7704 18.8371 78.9635 19.597 77.8755 20.1786C76.7872 20.7602 75.4364 21.051 73.8229 21.051H70.8398V28.143H66.0273V8.38673H73.8229C75.3989 8.38673 76.7309 8.65878 77.8192 9.20287C78.9072 9.74696 79.7234 10.4974 80.2676 11.4543C80.8117 12.4112 81.0838 13.5087 81.0838 14.747ZM73.4571 17.2236C74.3763 17.2236 75.0612 17.0078 75.5115 16.5763C75.9618 16.1448 76.1869 15.535 76.1869 14.747C76.1869 13.959 75.9618 13.3492 75.5115 12.9177C75.0612 12.4862 74.3763 12.2704 73.4571 12.2704H70.8398V17.2236H73.4571ZM82.8488 20.263C82.8488 18.6495 83.1488 17.233 83.7493 16.0134C84.3685 14.7939 85.2032 13.8558 86.2541 13.1992C87.3046 12.5425 88.4773 12.2142 89.7719 12.2142C90.8788 12.2142 91.845 12.4393 92.6706 12.8896C93.5149 13.3399 94.1622 13.9309 94.6125 14.6626V12.4393H99.4249V28.143H94.6125V25.9197C94.1434 26.6514 93.4868 27.2424 92.6425 27.6927C91.8168 28.143 90.8506 28.3682 89.7438 28.3682C88.4678 28.3682 87.3046 28.0398 86.2541 27.3832C85.2032 26.7077 84.3685 25.7602 83.7493 24.5407C83.1488 23.3024 82.8488 21.8765 82.8488 20.263ZM94.6125 20.2912C94.6125 19.0904 94.2748 18.1429 93.5993 17.4487C92.9425 16.7545 92.1359 16.4074 91.179 16.4074C90.2222 16.4074 89.406 16.7545 88.7306 17.4487C88.0738 18.1242 87.7456 19.0622 87.7456 20.263C87.7456 21.4638 88.0738 22.4207 88.7306 23.1336C89.406 23.8278 90.2222 24.1749 91.179 24.1749C92.1359 24.1749 92.9425 23.8278 93.5993 23.1336C94.2748 22.4393 94.6125 21.4919 94.6125 20.2912ZM119.164 12.4393L109.314 35.6009H104.136L107.738 27.6083L101.35 12.4393H106.725L110.356 22.2612L113.958 12.4393H119.164ZM134.236 14.6344C133.879 13.9778 133.363 13.4806 132.688 13.1429C132.031 12.7864 131.253 12.6082 130.352 12.6082C128.795 12.6082 127.547 13.1241 126.609 14.156C125.671 15.1692 125.202 16.5294 125.202 18.2367C125.202 20.0566 125.69 21.4825 126.665 22.5144C127.66 23.5276 129.02 24.0342 130.746 24.0342C131.928 24.0342 132.922 23.7339 133.729 23.1336C134.555 22.5333 135.155 21.6702 135.53 20.5444H129.423V16.9984H139.892V21.4732C139.536 22.674 138.926 23.7902 138.063 24.8222C137.219 25.8541 136.14 26.6889 134.827 27.3269C133.513 27.9648 132.031 28.2837 130.38 28.2837C128.429 28.2837 126.684 27.8616 125.146 27.0173C123.626 26.1542 122.434 24.9629 121.571 23.4432C120.727 21.9234 120.305 20.188 120.305 18.2367C120.305 16.2855 120.727 14.55 121.571 13.0303C122.434 11.4918 123.626 10.3004 125.146 9.45616C126.665 8.5931 128.401 8.16159 130.352 8.16159C132.716 8.16159 134.705 8.73382 136.318 9.8783C137.951 11.0228 139.029 12.6082 139.555 14.6344H134.236ZM147.587 7.3173V28.143H142.774V7.3173H147.587ZM153.711 10.807C152.867 10.807 152.173 10.5631 151.629 10.0753C151.103 9.56873 150.841 8.94959 150.841 8.21787C150.841 7.46739 151.103 6.84825 151.629 6.36044C152.173 5.85387 152.867 5.60059 153.711 5.60059C154.537 5.60059 155.212 5.85387 155.737 6.36044C156.282 6.84825 156.554 7.46739 156.554 8.21787C156.554 8.94959 156.282 9.56873 155.737 10.0753C155.212 10.5631 154.537 10.807 153.711 10.807ZM156.103 12.4393V28.143H151.291V12.4393H156.103ZM158.851 20.263C158.851 18.6495 159.151 17.233 159.751 16.0134C160.37 14.7939 161.205 13.8558 162.256 13.1992C163.306 12.5425 164.479 12.2142 165.774 12.2142C166.806 12.2142 167.744 12.4299 168.588 12.8614C169.451 13.293 170.126 13.8746 170.614 14.6063V7.3173H175.427V28.143H170.614V25.8916C170.164 26.6421 169.517 27.2424 168.672 27.6927C167.847 28.143 166.881 28.3682 165.774 28.3682C164.479 28.3682 163.306 28.0398 162.256 27.3832C161.205 26.7077 160.37 25.7602 159.751 24.5407C159.151 23.3024 158.851 21.8765 158.851 20.263ZM170.614 20.2912C170.614 19.0904 170.277 18.1429 169.601 17.4487C168.944 16.7545 168.138 16.4074 167.181 16.4074C166.224 16.4074 165.408 16.7545 164.732 17.4487C164.076 18.1242 163.747 19.0622 163.747 20.263C163.747 21.4638 164.076 22.4207 164.732 23.1336C165.408 23.8278 166.224 24.1749 167.181 24.1749C168.138 24.1749 168.944 23.8278 169.601 23.1336C170.277 22.4393 170.614 21.4919 170.614 20.2912ZM193.928 20.0379C193.928 20.4882 193.9 20.9572 193.843 21.445H182.952C183.027 22.4207 183.337 23.171 183.881 23.6964C184.444 24.203 185.129 24.4563 185.935 24.4563C187.136 24.4563 187.971 23.9497 188.44 22.9366H193.562C193.299 23.9686 192.821 24.8973 192.127 25.7227C191.451 26.5482 190.598 27.1955 189.566 27.6646C188.534 28.1337 187.38 28.3682 186.104 28.3682C184.566 28.3682 183.196 28.0398 181.995 27.3832C180.795 26.7266 179.856 25.7883 179.181 24.5689C178.505 23.3494 178.168 21.9234 178.168 20.2912C178.168 18.6589 178.496 17.233 179.153 16.0134C179.828 14.7939 180.766 13.8558 181.967 13.1992C183.168 12.5425 184.547 12.2142 186.104 12.2142C187.624 12.2142 188.975 12.5331 190.157 13.171C191.339 13.8089 192.258 14.7189 192.915 15.9009C193.59 17.0829 193.928 18.4619 193.928 20.0379ZM189.003 18.7714C189.003 17.9459 188.721 17.2892 188.158 16.8014C187.596 16.3136 186.892 16.0697 186.048 16.0697C185.241 16.0697 184.556 16.3042 183.993 16.7733C183.449 17.2424 183.112 17.9084 182.98 18.7714H189.003Z" fill="white"/>
<path d="M21.3091 21.0523L42.2143 17.3187L1.29892 0.0732552C1.13264 0.00462677 0.950529 -0.0163369 0.773 0.0127134C0.59547 0.0417636 0.429538 0.11968 0.293801 0.237729C0.161076 0.360309 0.0676671 0.519482 0.0253808 0.695133C-0.0169055 0.870783 -0.00617156 1.05503 0.056226 1.22458L21.3091 21.0523Z" fill="#D580FF"/>
<path d="M20.5679 20.5656L13.6656 32.5441C13.6032 32.7136 13.5925 32.8978 13.6348 33.0736C13.677 33.2492 13.7704 33.4083 13.9032 33.5308C14.0773 33.6782 14.2964 33.762 14.5245 33.7685C14.6511 33.7945 14.7817 33.7945 14.9083 33.7685L42.2163 17.3184L20.5679 20.5656Z" fill="white"/>
</svg>
