<svg width="250" height="47" viewBox="0 0 250 47" fill="none" xmlns="http://www.w3.org/2000/svg">
<path d="M102.896 18.7146C102.896 20.167 102.563 21.5003 101.896 22.7146C101.229 23.905 100.206 24.8693 98.8248 25.6074C97.4437 26.3455 95.7294 26.7146 93.6819 26.7146H89.8962V35.7146H83.7891V10.6431H93.6819C95.6819 10.6431 97.3723 10.9884 98.7533 11.6789C100.134 12.3693 101.17 13.3217 101.86 14.536C102.551 15.7503 102.896 17.1431 102.896 18.7146ZM93.2176 21.8574C94.3841 21.8574 95.2534 21.5836 95.8248 21.036C96.3962 20.4884 96.6819 19.7146 96.6819 18.7146C96.6819 17.7146 96.3962 16.9407 95.8248 16.3931C95.2534 15.8455 94.3841 15.5717 93.2176 15.5717H89.8962V21.8574H93.2176ZM105.136 25.7146C105.136 23.667 105.517 21.8693 106.279 20.3217C107.065 18.7741 108.124 17.5836 109.457 16.7503C110.791 15.917 112.279 15.5003 113.922 15.5003C115.326 15.5003 116.553 15.786 117.6 16.3574C118.672 16.9289 119.493 17.6788 120.065 18.6074V15.786H126.172V35.7146H120.065V32.8931C119.469 33.8217 118.636 34.5717 117.565 35.1431C116.517 35.7146 115.291 36.0003 113.886 36.0003C112.267 36.0003 110.791 35.5835 109.457 34.7503C108.124 33.8931 107.065 32.6907 106.279 31.1431C105.517 29.5717 105.136 27.7621 105.136 25.7146ZM120.065 25.7503C120.065 24.2265 119.636 23.0241 118.779 22.1431C117.945 21.2622 116.922 20.8217 115.707 20.8217C114.493 20.8217 113.457 21.2622 112.6 22.1431C111.767 23.0003 111.35 24.1907 111.35 25.7146C111.35 27.2384 111.767 28.4528 112.6 29.3574C113.457 30.2385 114.493 30.6789 115.707 30.6789C116.922 30.6789 117.945 30.2385 118.779 29.3574C119.636 28.4764 120.065 27.2741 120.065 25.7503ZM151.222 15.786L138.722 45.1788H132.15L136.722 35.036L128.615 15.786H135.436L140.043 28.2503L144.615 15.786H151.222ZM170.348 18.5717C169.895 17.7384 169.241 17.1074 168.384 16.6789C167.55 16.2265 166.562 16.0003 165.419 16.0003C163.443 16.0003 161.86 16.655 160.669 17.9646C159.479 19.2503 158.884 20.9765 158.884 23.1431C158.884 25.4527 159.503 27.2622 160.741 28.5717C162.003 29.8574 163.729 30.5003 165.919 30.5003C167.419 30.5003 168.681 30.1192 169.705 29.3574C170.753 28.5956 171.514 27.5003 171.991 26.0717H164.241V21.5717H177.526V27.2503C177.074 28.7742 176.3 30.1907 175.205 31.5003C174.134 32.8099 172.764 33.8692 171.098 34.6789C169.431 35.4885 167.55 35.8931 165.455 35.8931C162.979 35.8931 160.764 35.3574 158.812 34.286C156.884 33.1907 155.371 31.6789 154.276 29.7503C153.205 27.8217 152.669 25.6193 152.669 23.1431C152.669 20.667 153.205 18.4646 154.276 16.536C155.371 14.5836 156.884 13.0717 158.812 12.0003C160.741 10.905 162.943 10.3574 165.419 10.3574C168.419 10.3574 170.943 11.0836 172.991 12.536C175.062 13.9884 176.431 16.0003 177.098 18.5717H170.348ZM187.291 9.28599V35.7146H181.184V9.28599H187.291ZM195.063 13.7146C193.992 13.7146 193.11 13.405 192.42 12.786C191.753 12.1431 191.42 11.3574 191.42 10.4289C191.42 9.47646 191.753 8.69075 192.42 8.07171C193.11 7.42885 193.992 7.10742 195.063 7.10742C196.11 7.10742 196.968 7.42885 197.634 8.07171C198.325 8.69075 198.67 9.47646 198.67 10.4289C198.67 11.3574 198.325 12.1431 197.634 12.786C196.968 13.405 196.11 13.7146 195.063 13.7146ZM198.099 15.786V35.7146H191.992V15.786H198.099ZM201.585 25.7146C201.585 23.667 201.966 21.8693 202.728 20.3217C203.514 18.7741 204.573 17.5836 205.906 16.7503C207.24 15.917 208.728 15.5003 210.371 15.5003C211.68 15.5003 212.871 15.7741 213.942 16.3217C215.037 16.8693 215.895 17.6074 216.514 18.536V9.28599H222.621V35.7146H216.514V32.8574C215.942 33.8099 215.121 34.5717 214.049 35.1431C213.002 35.7146 211.775 36.0003 210.371 36.0003C208.728 36.0003 207.24 35.5835 205.906 34.7503C204.573 33.8931 203.514 32.6907 202.728 31.1431C201.966 29.5717 201.585 27.7621 201.585 25.7146ZM216.514 25.7503C216.514 24.2265 216.085 23.0241 215.228 22.1431C214.395 21.2622 213.371 20.8217 212.156 20.8217C210.942 20.8217 209.906 21.2622 209.049 22.1431C208.216 23.0003 207.799 24.1907 207.799 25.7146C207.799 27.2384 208.216 28.4528 209.049 29.3574C209.906 30.2385 210.942 30.6789 212.156 30.6789C213.371 30.6789 214.395 30.2385 215.228 29.3574C216.085 28.4764 216.514 27.2741 216.514 25.7503ZM246.099 25.4289C246.099 26.0003 246.064 26.5955 245.992 27.2146H232.171C232.266 28.4528 232.659 29.405 233.349 30.0717C234.064 30.7146 234.933 31.036 235.956 31.036C237.48 31.036 238.54 30.3931 239.135 29.1074H245.635C245.302 30.417 244.695 31.5956 243.814 32.6431C242.956 33.6907 241.873 34.5121 240.564 35.1074C239.254 35.7028 237.79 36.0003 236.171 36.0003C234.218 36.0003 232.48 35.5835 230.956 34.7503C229.433 33.917 228.242 32.7264 227.385 31.1789C226.528 29.6313 226.099 27.8217 226.099 25.7503C226.099 23.6788 226.516 21.8693 227.349 20.3217C228.206 18.7741 229.397 17.5836 230.921 16.7503C232.445 15.917 234.195 15.5003 236.171 15.5003C238.099 15.5003 239.814 15.905 241.314 16.7146C242.814 17.5241 243.98 18.6789 244.814 20.1789C245.671 21.6789 246.099 23.4289 246.099 25.4289ZM239.849 23.8217C239.849 22.7741 239.492 21.9407 238.778 21.3217C238.064 20.7027 237.171 20.3931 236.099 20.3931C235.076 20.3931 234.206 20.6907 233.492 21.286C232.802 21.8812 232.373 22.7265 232.206 23.8217H239.849Z" fill="white"/>
<path d="M27.042 26.7162L53.5714 21.978L1.64838 0.0929635C1.43736 0.00587154 1.20626 -0.0207321 0.980964 0.0161337C0.755673 0.0529994 0.545099 0.151878 0.372843 0.301687C0.204411 0.457244 0.085872 0.659242 0.0322091 0.882148C-0.0214537 1.10505 -0.00783193 1.33887 0.0713528 1.55404L27.042 26.7162Z" fill="#D580FF"/>
<path d="M26.1002 26.0984L17.3409 41.2995C17.2617 41.5146 17.2481 41.7484 17.3017 41.9715C17.3554 42.1943 17.4739 42.3962 17.6424 42.5517C17.8634 42.7388 18.1414 42.8451 18.4309 42.8534C18.5915 42.8863 18.7573 42.8863 18.9179 42.8534L53.5727 21.9775L26.1002 26.0984Z" fill="black"/>
</svg>
