<svg width="11" height="12" viewBox="0 0 11 12" fill="none" xmlns="http://www.w3.org/2000/svg">
<path d="M5.5 1.53125C4.61617 1.53125 3.75218 1.79334 3.0173 2.28437C2.28242 2.7754 1.70964 3.47333 1.37142 4.28988C1.03319 5.10644 0.94469 6.00496 1.11712 6.87181C1.28955 7.73866 1.71515 8.53492 2.34012 9.15988C2.96508 9.78485 3.76134 10.2105 4.62819 10.3829C5.49504 10.5553 6.39356 10.4668 7.21012 10.1286C8.02668 9.79036 8.7246 9.21759 9.21563 8.4827C9.70666 7.74782 9.96875 6.88384 9.96875 6C9.9675 4.8152 9.49629 3.67928 8.6585 2.8415C7.82072 2.00372 6.6848 1.5325 5.5 1.53125ZM5.5 9.78125C4.75214 9.78125 4.02108 9.55948 3.39925 9.14399C2.77743 8.72851 2.29278 8.13796 2.00658 7.44702C1.72039 6.75609 1.64551 5.99581 1.79141 5.26231C1.93731 4.52882 2.29744 3.85507 2.82625 3.32625C3.35507 2.79744 4.02883 2.43731 4.76232 2.29141C5.49581 2.14551 6.25609 2.22039 6.94702 2.50658C7.63796 2.79277 8.22851 3.27743 8.644 3.89925C9.05949 4.52107 9.28125 5.25214 9.28125 6C9.28011 7.0025 8.88137 7.96362 8.17249 8.67249C7.46362 9.38137 6.5025 9.78011 5.5 9.78125ZM8.25 6C8.25 6.09117 8.21379 6.1786 8.14932 6.24307C8.08485 6.30753 7.99742 6.34375 7.90625 6.34375H5.5C5.40883 6.34375 5.3214 6.30753 5.25693 6.24307C5.19247 6.1786 5.15625 6.09117 5.15625 6V3.59375C5.15625 3.50258 5.19247 3.41515 5.25693 3.35068C5.3214 3.28622 5.40883 3.25 5.5 3.25C5.59117 3.25 5.6786 3.28622 5.74307 3.35068C5.80754 3.41515 5.84375 3.50258 5.84375 3.59375V5.65625H7.90625C7.99742 5.65625 8.08485 5.69247 8.14932 5.75693C8.21379 5.8214 8.25 5.90883 8.25 6Z" fill="url(#paint0_linear_1004_60)"/>
<defs>
<linearGradient id="paint0_linear_1004_60" x1="1.03125" y1="6.00001" x2="5.69432" y2="6.01564" gradientUnits="userSpaceOnUse">
<stop stop-color="#EB98FD"/>
<stop offset="1" stop-color="#6AB7FF"/>
</linearGradient>
</defs>
</svg>
