<svg width="1440" height="298" viewBox="0 0 1440 298" fill="none" xmlns="http://www.w3.org/2000/svg">
<path d="M1004.15 137.841H1146.92L1122.34 79.576H987.761L1004.15 137.841ZM859.648 137.841H1002.86L986.471 79.576H851.453L859.648 137.841ZM721.117 137.841H858.394L850.2 79.576H721.117V137.841ZM582.599 137.841H719.876V79.576H590.794L582.599 137.841ZM438.134 137.841H581.345L589.54 79.576H454.522L438.134 137.841ZM294.075 137.841H436.844L453.233 79.576H318.657L294.075 137.841ZM392.175 296.653L414.876 215.941H261.124L226.503 298L225.359 297.519L259.777 215.941H0V214.701H260.3L292.206 139.081H0V137.841H292.728L317.31 79.576H0V78.3371H317.834L341.893 21.3118H0V20.0717H342.416L350.49 0.934577L351.634 1.41623L343.763 20.0717H469.969L475.596 0.0693359L476.79 0.404508L471.259 20.0717H597.908L600.71 0.151267L601.939 0.322577L599.162 20.0717H719.876V0.236922H721.117V20.0717H841.831L839.055 0.322577L840.283 0.151267L843.085 20.0717H969.734L964.203 0.404508L965.397 0.0693359L971.024 20.0717H1097.23L1089.36 1.41623L1090.5 0.934577L1098.58 20.0717H1440V21.3118H1099.1L1123.16 78.3371H1440V79.576H1123.68L1148.26 137.841H1440V139.081H1148.79L1180.69 214.701H1440V215.941H1181.22L1215.63 297.519L1214.49 298L1179.87 215.941H1026.12L1048.82 296.653L1047.62 296.989L1024.83 215.941H870.631L881.994 296.735L880.765 296.908L869.378 215.941H721.117V296.821H719.876V215.941H571.615L560.228 296.908L558.999 296.735L570.362 215.941H416.166L393.37 296.989L392.175 296.653ZM343.24 21.3118L319.181 78.3371H453.581L469.621 21.3118H343.24ZM470.91 21.3118L454.87 78.3371H589.714L597.734 21.3118H470.91ZM598.987 21.3118L590.967 78.3371H719.876V21.3118H598.987ZM721.117 21.3118V78.3371H850.026L842.007 21.3118H721.117ZM843.259 21.3118L851.28 78.3371H986.123L970.083 21.3118H843.259ZM971.372 21.3118L987.412 78.3371H1121.81L1097.75 21.3118H971.372ZM293.553 139.081L261.648 214.701H415.225L436.495 139.081H293.553ZM437.785 139.081L416.515 214.701H570.535L581.17 139.081H437.785ZM582.424 139.081L571.789 214.701H719.876V139.081H582.424ZM721.117 139.081V214.701H869.204L858.569 139.081H721.117ZM859.823 139.081L870.458 214.701H1024.48L1003.21 139.081H859.823ZM1004.5 139.081L1025.77 214.701H1179.35L1147.44 139.081H1004.5Z" fill="url(#paint0_radial_1004_74)"/>
<defs>
<radialGradient id="paint0_radial_1004_74" cx="0" cy="0" r="1" gradientUnits="userSpaceOnUse" gradientTransform="translate(720 316.061) scale(810.72 223.448)">
<stop stop-color="#DDDDDD"/>
<stop offset="0.929705" stop-color="#E9E8E8" stop-opacity="0.070295"/>
<stop offset="1" stop-color="white" stop-opacity="0"/>
<stop offset="1" stop-color="#DEDBDB" stop-opacity="0"/>
</radialGradient>
</defs>
</svg>
