<svg width="24" height="12" viewBox="0 0 24 12" fill="none" xmlns="http://www.w3.org/2000/svg">
<path d="M23.9586 5.99231C23.9586 5.74702 23.8605 5.51404 23.6888 5.34233L19.1264 0.779935C18.7707 0.424267 18.182 0.424267 17.8264 0.779935C17.4707 1.1356 17.4707 1.72429 17.8264 2.07996L20.8312 5.08475H0.9628C0.459959 5.08475 0.0429688 5.50175 0.0429688 6.00459C0.0429688 6.50743 0.459959 6.92442 0.9628 6.92442H20.8189L17.8264 9.91694C17.4707 10.2726 17.4707 10.8613 17.8264 11.217C18.0103 11.4009 18.2434 11.4868 18.4764 11.4868C18.7094 11.4868 18.9424 11.4009 19.1264 11.217L23.6765 6.66691C23.7624 6.58106 23.8359 6.47067 23.885 6.34803C23.885 6.33576 23.885 6.32346 23.8973 6.3112C23.9341 6.20082 23.9586 6.10269 23.9586 5.99231Z" fill="white"/>
</svg>
