<?xml version="1.0" encoding="utf-8"?>
<!-- Generator: Adobe Illustrator 25.0.1, SVG Export Plug-In . SVG Version: 6.00 Build 0)  -->
<svg version="1.1" id="Layer_1" xmlns="http://www.w3.org/2000/svg" xmlns:xlink="http://www.w3.org/1999/xlink" x="0px" y="0px"
	 width="22px" height="22px" viewBox="0 0 22 22" style="enable-background:new 0 0 22 22;" xml:space="preserve">
<style type="text/css">
	.st0{fill:none;stroke:#000000;stroke-width:1.5;stroke-linecap:round;stroke-linejoin:round;stroke-miterlimit:10;}
	.st1{fill:none;stroke:#000000;stroke-width:1.5;stroke-linecap:round;stroke-linejoin:round;}
</style>
<path class="st0" d="M16,17.4h-4l-4.4,3c-0.2,0.1-0.3,0.2-0.5,0.2s-0.4,0-0.5-0.1c-0.2-0.1-0.3-0.2-0.4-0.4C6,19.9,6,19.7,6,19.6
	v-2.1c-3,0-5-2-5-5v-6c0-3,2-5,5-5h10c3,0,5,2,5,5v6C21,15.4,19,17.4,16,17.4z"/>
<path class="st1" d="M11,11v-0.2c0-0.7,0.4-1,0.8-1.3c0.4-0.3,0.8-0.6,0.8-1.3c0-0.9-0.7-1.7-1.7-1.7S9.3,7.3,9.3,8.2 M11,13.4
	L11,13.4"/>
</svg>
